# xmcd CD database file
#
# Track frame offsets:
#	150
#	18317
#	33687
#	51267
#	70235
#	83767
#
# Disc length: 1325 seconds
#
# Revision: 0
# Processed by: cddbd v1.5PL3 Copyright (c) Steve Scherf et al.
# Submitted via: CDex 1.51
#
DISCID=49052b06
DTITLE=チコチェアー - チコデストロイヤー
DYEAR=1900
DGENRE=Rock
TTITLE0=タンジェリン
TTITLE1=フレンチクルーラー
TTITLE2=遠くへ・・・
TTITLE3=消えてゆく、空が痛い秋
TTITLE4=ヘビーローテンション
TTITLE5=beautiful one
EXTD=
EXTT0=
EXTT1=
EXTT2=
EXTT3=
EXTT4=
EXTT5=
PLAYORDER=
